<svg width="89" height="74" viewBox="0 0 89 74" fill="none" xmlns="http://www.w3.org/2000/svg">
<mask id="path-1-outside-1_17_174" maskUnits="userSpaceOnUse" x="0.000183105" y="-0.356445" width="89" height="74" fill="black">
<rect fill="white" x="0.000183105" y="-0.356445" width="89" height="74"/>
<path d="M17.7502 70.3935L5.00018 60.3935C8.50018 56.7269 11.2502 53.3102 13.2502 50.1436C15.4169 46.8102 16.9169 43.5602 17.7502 40.3935C18.7502 37.0602 19.2502 33.6435 19.2502 30.1435L27.0002 37.1435H2.50018V2.39354H37.5002V25.1435C37.5002 30.8102 36.8335 36.2269 35.5002 41.3935C34.3335 46.3935 32.3335 51.3102 29.5002 56.1436C26.6669 60.8102 22.7502 65.5602 17.7502 70.3935ZM66.5002 70.3935L53.7502 60.3935C57.2502 56.7269 60.0002 53.3102 62.0002 50.1436C64.1669 46.8102 65.6669 43.5602 66.5002 40.3935C67.5002 37.0602 68.0002 33.6435 68.0002 30.1435L75.7502 37.1435H51.2502V2.39354H86.2502V25.1435C86.2502 30.8102 85.5835 36.2269 84.2502 41.3935C83.0835 46.3935 81.0835 51.3102 78.2502 56.1436C75.4169 60.8102 71.5002 65.5602 66.5002 70.3935Z"/>
</mask>
<path d="M17.7502 70.3936L16.5159 71.9673L17.8872 73.0428L19.1402 71.8315L17.7502 70.3936ZM5.00018 60.3936L3.55347 59.0126L2.03156 60.607L3.7659 61.9673L5.00018 60.3936ZM13.2502 50.1436L11.5733 49.0536L11.5662 49.0645L11.5592 49.0756L13.2502 50.1436ZM17.7502 40.3935L15.8345 39.8188L15.8247 39.8515L15.816 39.8846L17.7502 40.3935ZM19.2502 30.1435L20.5908 28.6593L17.2502 25.6421V30.1435H19.2502ZM27.0002 37.1435V39.1435H32.1983L28.3408 35.6593L27.0002 37.1435ZM2.50018 37.1435H0.500183V39.1435H2.50018V37.1435ZM2.50018 2.39355V0.393547H0.500183V2.39355H2.50018ZM37.5002 2.39355H39.5002V0.393547H37.5002V2.39355ZM35.5002 41.3935L33.5636 40.8938L33.5578 40.9164L33.5525 40.9391L35.5002 41.3935ZM29.5002 56.1436L31.2098 57.1815L31.2178 57.1683L31.2256 57.155L29.5002 56.1436ZM66.5002 70.3936L65.2659 71.9673L66.6372 73.0428L67.8902 71.8315L66.5002 70.3936ZM53.7502 60.3936L52.3035 59.0126L50.7816 60.607L52.5159 61.9673L53.7502 60.3936ZM62.0002 50.1436L60.3233 49.0536L60.3162 49.0645L60.3092 49.0756L62.0002 50.1436ZM66.5002 40.3935L64.5845 39.8188L64.5747 39.8515L64.566 39.8846L66.5002 40.3935ZM68.0002 30.1435L69.3408 28.6593L66.0002 25.642V30.1435H68.0002ZM75.7502 37.1435V39.1435H80.9483L77.0908 35.6593L75.7502 37.1435ZM51.2502 37.1435H49.2502V39.1435H51.2502V37.1435ZM51.2502 2.39355V0.393547H49.2502V2.39355H51.2502ZM86.2502 2.39355H88.2502V0.393547H86.2502V2.39355ZM84.2502 41.3935L82.3136 40.8938L82.3078 40.9164L82.3025 40.9391L84.2502 41.3935ZM78.2502 56.1436L79.9598 57.1815L79.9678 57.1683L79.9756 57.155L78.2502 56.1436ZM18.9845 68.8198L6.23446 58.8198L3.7659 61.9673L16.5159 71.9673L18.9845 68.8198ZM6.4469 61.7745C10.0087 58.0431 12.8505 54.5218 14.9412 51.2115L11.5592 49.0756C9.64987 52.0987 6.99166 55.4107 3.55347 59.0126L6.4469 61.7745ZM14.9271 51.2335C17.1859 47.7584 18.7866 44.314 19.6843 40.9025L15.816 39.8846C15.0471 42.8064 13.6478 45.862 11.5733 49.0536L14.9271 51.2335ZM19.6658 40.9682C20.7221 37.4474 21.2502 33.8371 21.2502 30.1435H17.2502C17.2502 33.45 16.7783 36.673 15.8345 39.8188L19.6658 40.9682ZM17.9096 31.6277L25.6596 38.6277L28.3408 35.6593L20.5908 28.6593L17.9096 31.6277ZM27.0002 35.1435H2.50018V39.1435H27.0002V35.1435ZM4.50018 37.1435V2.39355H0.500183V37.1435H4.50018ZM2.50018 4.39355H37.5002V0.393547H2.50018V4.39355ZM35.5002 2.39355V25.1435H39.5002V2.39355H35.5002ZM35.5002 25.1435C35.5002 30.652 34.8523 35.9002 33.5636 40.8938L37.4367 41.8933C38.8147 36.5536 39.5002 30.9684 39.5002 25.1435H35.5002ZM33.5525 40.9391C32.4355 45.7263 30.5157 50.4565 27.7748 55.1321L31.2256 57.155C34.1514 52.1639 36.2316 47.0608 37.4479 41.848L33.5525 40.9391ZM27.7906 55.1056C25.0666 59.5922 21.2688 64.2106 16.3601 68.9556L19.1402 71.8315C24.2316 66.9099 28.2671 62.0282 31.2098 57.1815L27.7906 55.1056ZM67.7345 68.8198L54.9845 58.8198L52.5159 61.9673L65.2659 71.9673L67.7345 68.8198ZM55.1969 61.7745C58.7587 58.0431 61.6005 54.5218 63.6912 51.2115L60.3092 49.0756C58.3999 52.0987 55.7417 55.4107 52.3035 59.0126L55.1969 61.7745ZM63.6771 51.2335C65.9359 47.7584 67.5366 44.314 68.4343 40.9025L64.566 39.8846C63.7971 42.8064 62.3978 45.862 60.3233 49.0536L63.6771 51.2335ZM68.4158 40.9682C69.4721 37.4474 70.0002 33.8371 70.0002 30.1435H66.0002C66.0002 33.45 65.5283 36.673 64.5845 39.8188L68.4158 40.9682ZM66.6596 31.6277L74.4096 38.6277L77.0908 35.6593L69.3408 28.6593L66.6596 31.6277ZM75.7502 35.1435H51.2502V39.1435H75.7502V35.1435ZM53.2502 37.1435V2.39355H49.2502V37.1435H53.2502ZM51.2502 4.39355H86.2502V0.393547H51.2502V4.39355ZM84.2502 2.39355V25.1435H88.2502V2.39355H84.2502ZM84.2502 25.1435C84.2502 30.652 83.6023 35.9002 82.3136 40.8938L86.1867 41.8933C87.5647 36.5536 88.2502 30.9684 88.2502 25.1435H84.2502ZM82.3025 40.9391C81.1855 45.7263 79.2657 50.4565 76.5248 55.1321L79.9756 57.155C82.9014 52.1639 84.9816 47.0608 86.1979 41.848L82.3025 40.9391ZM76.5406 55.1056C73.8166 59.5922 70.0188 64.2106 65.1101 68.9556L67.8902 71.8315C72.9816 66.9099 77.0171 62.0282 79.9598 57.1815L76.5406 55.1056Z" fill="url(#paint0_linear_17_174)" mask="url(#path-1-outside-1_17_174)"/>
<defs>
<linearGradient id="paint0_linear_17_174" x1="45.0002" y1="0.643558" x2="45.0002" y2="74.6436" gradientUnits="userSpaceOnUse">
<stop stop-color="#D78D1F"/>
<stop offset="1" stop-color="#B75C1B"/>
</linearGradient>
</defs>
</svg>
