<svg viewBox="0 0 30 30" fill="none" xmlns="http://www.w3.org/2000/svg">
<g clip-path="url(#clip0_8_71)">
<path d="M14.9999 2.8125C18.2323 2.8125 21.3322 4.09654 23.6178 6.38214C25.9034 8.66774 27.1874 11.7677 27.1874 15C27.1874 18.2323 25.9034 21.3323 23.6178 23.6179C21.3322 25.9035 18.2323 27.1875 14.9999 27.1875C11.7676 27.1875 8.66768 25.9035 6.38208 23.6179C4.09648 21.3323 2.81244 18.2323 2.81244 15C2.81244 11.7677 4.09648 8.66774 6.38208 6.38214C8.66768 4.09654 11.7676 2.8125 14.9999 2.8125ZM14.9999 30C18.9782 30 22.7935 28.4196 25.6065 25.6066C28.4196 22.7936 29.9999 18.9782 29.9999 15C29.9999 11.0218 28.4196 7.20644 25.6065 4.3934C22.7935 1.58035 18.9782 0 14.9999 0C11.0217 0 7.20638 1.58035 4.39334 4.3934C1.58029 7.20644 -6.10352e-05 11.0218 -6.10352e-05 15C-6.10352e-05 18.9782 1.58029 22.7936 4.39334 25.6066C7.20638 28.4196 11.0217 30 14.9999 30ZM21.621 12.2461C22.1718 11.6953 22.1718 10.8047 21.621 10.2598C21.0703 9.71484 20.1796 9.70898 19.6347 10.2598L13.1308 16.7637L10.3769 14.0098C9.82611 13.459 8.93549 13.459 8.39056 14.0098C7.84564 14.5605 7.83978 15.4512 8.39056 15.9961L12.1406 19.7461C12.6913 20.2969 13.582 20.2969 14.1269 19.7461L21.621 12.2461Z" fill="#C8761D"/>
</g>
</svg>
