<svg width="100" height="98" viewBox="0 0 100 98" fill="none" xmlns="http://www.w3.org/2000/svg">
<path d="M50.338 0C43.9754 0 38.7996 5.20086 38.7996 11.6112C38.7996 18.014 43.9754 23.2225 50.338 23.2225C56.7082 23.2225 61.8765 18.014 61.8765 11.6112C61.8765 5.20086 56.7082 0 50.338 0ZM50.338 3.87041C54.5823 3.87041 58.0303 7.34017 58.0303 11.6112C58.0303 15.8747 54.5823 19.3521 50.338 19.3521C46.1013 19.3521 42.6457 15.8747 42.6457 11.6112C42.6457 7.34017 46.1013 3.87041 50.338 3.87041ZM45.305 24.4622C37.0868 24.4622 29.9429 30.351 28.3353 38.4622L26.4724 47.8056C25.646 51.9935 27.6442 56.068 31.1674 58.0864L31.1298 58.1166L28.6358 60.6264C27.9072 61.3672 27.2912 62.2365 26.848 63.1663H15.3846C12.2145 63.1663 9.61538 65.7819 9.61538 68.9719V80.5832C9.61538 83.4633 11.7263 85.8899 14.4982 86.3132H14.5057L13.5291 92.1944C13.2888 93.6382 13.6944 95.1123 14.6334 96.2387C15.5799 97.3575 16.9621 98 18.4195 98C20.5529 98 22.4459 96.6318 23.122 94.5832L25.8413 86.3888H30.2284L32.0012 93.5097C32.6547 96.1404 35.021 98 37.7329 98C39.4231 98 41.0607 97.2441 42.1725 95.9438C43.3068 94.6512 43.8101 92.9277 43.5622 91.2268L42.8636 86.3888H57.1364L56.4378 91.2268C56.1899 92.9277 56.6932 94.6512 57.8275 95.9438C58.9393 97.2441 60.5769 98 62.2671 98C64.979 98 67.3452 96.1404 67.9988 93.5097L69.7716 86.3888H74.1587L76.878 94.5832C77.5541 96.6318 79.4471 98 81.5805 98C83.0379 98 84.4201 97.3575 85.3666 96.2387C86.3056 95.1123 86.7112 93.6382 86.4708 92.1944L85.4943 86.3132H85.5018C88.2737 85.8899 90.3846 83.4633 90.3846 80.5832V68.9719C90.3846 65.7819 87.7855 63.1663 84.6154 63.1663H73.152C72.7088 62.2365 72.0928 61.3672 71.3642 60.6264L68.8326 58.0788C72.3558 56.068 74.354 51.9935 73.5276 47.8056L71.6647 38.4622C70.0496 30.351 62.9207 24.4622 54.695 24.4622H45.305ZM45.305 28.3326H54.695C61.0877 28.3326 66.6466 32.9136 67.9011 39.2181L69.7491 48.5616C70.3576 51.608 68.4871 54.5788 65.4973 55.3348L54.3119 58.1469C53.7335 58.2981 53.1325 58.1695 52.6668 57.7991C52.1935 57.4287 51.9231 56.8769 51.9231 56.2721C51.9231 55.4406 52.4489 54.7073 53.2377 54.4428L58.774 52.5832C61.6136 51.6382 63.2737 48.5993 62.5376 45.6739L61.4784 41.4104C61.223 40.3747 60.1713 39.7397 59.1496 40.0043C58.1205 40.2613 57.4895 41.3121 57.7524 42.3477L58.8041 46.6112C59.052 47.5864 58.5036 48.5993 57.5496 48.9168L52.0207 50.7689C51.262 51.0259 50.5709 51.4341 50 51.9482C49.4216 51.4341 48.7455 51.0259 47.9793 50.7689L42.4354 48.9168C41.4964 48.5993 40.9405 47.5864 41.1809 46.6112L42.2326 42.3402C42.488 41.3045 41.857 40.2613 40.8278 40.0043C39.7987 39.7397 38.7545 40.3747 38.4991 41.4179L37.4474 45.6814C36.7338 48.5994 38.3864 51.6307 41.226 52.5832L46.7623 54.4428C47.5511 54.7073 48.0769 55.4406 48.0769 56.2721C48.0769 56.8769 47.8065 57.4287 47.3332 57.7991C46.8675 58.1695 46.2665 58.2981 45.6956 58.1469L34.5027 55.3348C31.5129 54.5864 29.6424 51.608 30.2509 48.5616L32.1064 39.2181C33.3609 32.9136 38.9123 28.3326 45.305 28.3326ZM1.92308 43.8143C0.856371 43.8143 0 44.6836 0 45.7495V49.6199C0 50.6857 0.856371 51.5551 1.92308 51.5551C2.98978 51.5551 3.84615 50.6857 3.84615 49.6199V45.7495C3.84615 44.6836 2.98978 43.8143 1.92308 43.8143ZM11.5385 43.8143C10.4718 43.8143 9.61538 44.6836 9.61538 45.7495V49.6199C9.61538 50.6857 10.4718 51.5551 11.5385 51.5551C12.6052 51.5551 13.4615 50.6857 13.4615 49.6199V45.7495C13.4615 44.6836 12.6052 43.8143 11.5385 43.8143ZM21.1538 43.8143C20.0871 43.8143 19.2308 44.6836 19.2308 45.7495V49.6199C19.2308 50.6857 20.0871 51.5551 21.1538 51.5551C22.2206 51.5551 23.0769 50.6857 23.0769 49.6199V45.7495C23.0769 44.6836 22.2206 43.8143 21.1538 43.8143ZM78.8462 43.8143C77.7794 43.8143 76.9231 44.6836 76.9231 45.7495V49.6199C76.9231 50.6857 77.7794 51.5551 78.8462 51.5551C79.9129 51.5551 80.7692 50.6857 80.7692 49.6199V45.7495C80.7692 44.6836 79.9129 43.8143 78.8462 43.8143ZM88.4615 43.8143C87.3948 43.8143 86.5385 44.6836 86.5385 45.7495V49.6199C86.5385 50.6857 87.3948 51.5551 88.4615 51.5551C89.5282 51.5551 90.3846 50.6857 90.3846 49.6199V45.7495C90.3846 44.6836 89.5282 43.8143 88.4615 43.8143ZM98.0769 43.8143C97.0102 43.8143 96.1538 44.6836 96.1538 45.7495V49.6199C96.1538 50.6857 97.0102 51.5551 98.0769 51.5551C99.1436 51.5551 100 50.6857 100 49.6199V45.7495C100 44.6836 99.1436 43.8143 98.0769 43.8143ZM35.2163 59.5076L44.7641 61.9039C45.2299 62.0248 45.7031 62.0778 46.1689 62.0778C47.4384 62.0778 48.6779 61.662 49.707 60.8456C49.8047 60.77 49.9099 60.6868 50 60.6037C50.0977 60.6868 50.1953 60.77 50.293 60.8456C51.7052 61.9568 53.5081 62.3423 55.2359 61.9039L64.7837 59.5076L68.6298 63.378C69.6139 64.3683 70.1923 65.6609 70.3125 67.0367C70.3501 67.6339 70.305 68.2538 70.1547 68.8736L66.7668 82.5184L64.2728 92.5572C64.04 93.487 63.2287 94.1296 62.2671 94.1296C61.6737 94.1296 61.1178 93.8801 60.7272 93.4114C60.329 92.9503 60.1562 92.3682 60.2464 91.7711L61.0201 86.3888L61.561 82.5184L63.2136 70.8467C63.439 69.3197 62.7329 67.8305 61.4633 67.0367C61.2154 66.8629 60.9225 66.7268 60.6145 66.6285C53.771 64.3229 46.229 64.3229 39.3855 66.6285C39.0775 66.7268 38.7846 66.8629 38.5367 67.0367C37.2671 67.8305 36.561 69.3197 36.7864 70.8467L38.439 82.5184L38.9799 86.3888L39.7536 91.7711C39.8438 92.3682 39.671 92.9503 39.2728 93.4114C38.8822 93.8801 38.3263 94.1296 37.7329 94.1296C36.7713 94.1296 35.96 93.487 35.7272 92.5572L33.2332 82.5184L29.8453 68.8963C29.695 68.2765 29.6499 67.6566 29.6875 67.0367C29.8077 65.6609 30.3861 64.3683 31.3702 63.378L35.2163 59.5076ZM15.3846 67.0367H25.8413C25.8038 67.9665 25.8864 68.8963 26.1118 69.8186L29.2668 82.5184H15.3846C14.3254 82.5184 13.4615 81.649 13.4615 80.5832V68.9719C13.4615 67.9061 14.3254 67.0367 15.3846 67.0367ZM74.1587 67.0367H84.6154C85.6746 67.0367 86.5385 67.9061 86.5385 68.9719V80.5832C86.5385 81.649 85.6746 82.5184 84.6154 82.5184H70.7332L73.8882 69.8186C74.1136 68.8963 74.1962 67.9665 74.1587 67.0367ZM50 68.7603C53.1851 68.7603 56.3777 69.2743 59.405 70.2873L57.6698 82.5184H42.3302L40.595 70.2873C43.6223 69.2743 46.8149 68.7603 50 68.7603ZM18.3894 86.3888H21.7849L19.4712 93.3661C19.3209 93.8197 18.9002 94.1296 18.4195 94.1296C17.9687 94.1296 17.6983 93.8801 17.5706 93.7365C17.4504 93.5853 17.2476 93.2678 17.3227 92.8294L18.3894 86.3888ZM78.2151 86.3888H81.6106L82.6773 92.8294C82.7449 93.2678 82.5571 93.5853 82.4294 93.7365C82.3017 93.8801 82.0312 94.1296 81.5805 94.1296C81.0998 94.1296 80.6791 93.8197 80.5288 93.3661L78.2151 86.3888Z" fill="url(#paint0_linear_13_136)"/>
<defs>
<linearGradient id="paint0_linear_13_136" x1="50" y1="-0.261037" x2="50" y2="98.3159" gradientUnits="userSpaceOnUse">
<stop stop-color="#D78D1F"/>
<stop offset="1" stop-color="#B75C1B"/>
</linearGradient>
</defs>
</svg>
