<svg width="92" height="86" viewBox="0 0 92 86" fill="none" xmlns="http://www.w3.org/2000/svg">
<path d="M56.6562 0C51.6006 0 47.4688 4.13189 47.4688 9.1875C47.4688 14.2431 51.6006 18.375 56.6562 18.375C61.7119 18.375 65.8438 14.2431 65.8438 9.1875C65.8438 4.13189 61.7119 0 56.6562 0ZM56.6562 3.0625C60.0562 3.0625 62.7812 5.78755 62.7812 9.1875C62.7812 12.5874 60.0562 15.3125 56.6562 15.3125C53.2563 15.3125 50.5312 12.5874 50.5312 9.1875C50.5312 5.78755 53.2563 3.0625 56.6562 3.0625ZM41.2032 12.244C39.8908 12.2771 38.5846 12.7207 37.4857 13.6377C33.6512 16.8371 30.8965 22.4078 28.8007 27.8885C26.7048 33.3692 25.3503 38.7602 24.7632 41.58C24.0104 45.1998 24.8704 49.048 27.5206 51.8053L27.4967 51.7844L30.8702 55.442L23.2678 78.3001L23.2738 78.2911C22.2873 81.184 23.7914 84.3855 26.6623 85.421C26.8351 85.4834 27.0111 85.4488 27.1857 85.4928L27.1827 85.5107C27.2176 85.5109 27.2525 85.5099 27.2874 85.5078C30.0799 86.1552 32.9943 84.6041 33.858 81.7903L38.8943 65.6194L44.0085 81.1084L43.9517 80.8871C44.4618 83.8663 47.2135 85.8403 50.1813 85.6453C50.2932 85.671 50.4075 85.6841 50.5223 85.6842L50.5193 85.6543C50.6079 85.6433 50.6906 85.6784 50.7795 85.6633C53.9433 85.1227 56.1294 82.1186 55.6005 78.9641C55.5882 78.888 55.5703 78.8131 55.5467 78.7397L48.9163 58.6122C48.8679 58.4681 48.7983 58.332 48.7099 58.2084L40.6649 46.8437C40.6548 46.2723 40.7434 38.2363 44.4092 31.3966L56.0521 48.2164C57.0083 49.598 58.5108 50.3596 60.0806 50.4505L68.9062 85.75H71.9688L62.9966 49.8613C63.1228 49.8222 63.2434 49.7669 63.3555 49.6968C63.3575 49.6958 63.3595 49.6948 63.3615 49.6938C65.8559 48.1231 66.5938 44.7615 64.9585 42.3098L64.9555 42.3068L46.8796 15.2018C45.8526 13.6594 44.2357 12.6565 42.5101 12.3457C42.0787 12.268 41.6406 12.233 41.2032 12.244ZM50.7795 85.6633L50.5223 85.6842C50.6084 85.6845 50.6945 85.6775 50.7795 85.6633ZM27.1827 85.5107L26.6623 85.421C26.8293 85.4808 27.0053 85.5112 27.1827 85.5107ZM41.3378 15.3215C41.5655 15.3198 41.7962 15.3408 42.0226 15.3843C42.9285 15.5582 43.7904 16.0849 44.3315 16.8976L62.4104 44.0085C63.115 45.0631 62.8252 46.4152 61.7315 47.1039C60.6675 47.7744 59.2712 47.4886 58.5703 46.4758L45.456 27.5326C45.3154 27.3299 45.1279 27.1642 44.9094 27.0496C44.691 26.935 44.4481 26.8748 44.2015 26.8742C43.9548 26.8736 43.7116 26.9326 43.4926 27.0462C43.2737 27.1598 43.0854 27.3246 42.9438 27.5266C37.0437 35.9731 37.5754 47.3431 37.5754 47.3431C37.5866 47.6407 37.6843 47.9286 37.8566 48.1716L46.0781 59.7905L52.5739 79.5024C52.8043 80.9923 51.8204 82.3799 50.2651 82.6456C48.6816 82.9156 47.2298 81.891 46.9693 80.3697C46.9569 80.2947 46.9389 80.2207 46.9155 80.1484L40.94 62.0396C40.8712 61.8328 40.759 61.6432 40.611 61.4833L29.7487 49.7088C29.7418 49.7008 29.7348 49.6928 29.7278 49.6849C27.8302 47.7106 27.1896 44.9614 27.7629 42.2051C28.3165 39.5461 29.6469 34.2468 31.6598 28.9831C33.6727 23.7194 36.4497 18.4898 39.4476 15.9884C39.9864 15.5388 40.6545 15.3264 41.3378 15.3215ZM1.53125 24.5C0.686 24.5 0 25.186 0 26.0312V29.0938C0 29.939 0.686 30.625 1.53125 30.625C2.3765 30.625 3.0625 29.939 3.0625 29.0938V26.0312C3.0625 25.186 2.3765 24.5 1.53125 24.5ZM9.1875 24.5C8.34225 24.5 7.65625 25.186 7.65625 26.0312V29.0938C7.65625 29.939 8.34225 30.625 9.1875 30.625C10.0328 30.625 10.7188 29.939 10.7188 29.0938V26.0312C10.7188 25.186 10.0328 24.5 9.1875 24.5ZM16.8438 24.5C15.9985 24.5 15.3125 25.186 15.3125 26.0312V29.0938C15.3125 29.939 15.9985 30.625 16.8438 30.625C17.689 30.625 18.375 29.939 18.375 29.0938V26.0312C18.375 25.186 17.689 24.5 16.8438 24.5ZM24.5 24.5C23.6548 24.5 22.9688 25.186 22.9688 26.0312V29.0938C22.9688 29.939 23.6548 30.625 24.5 30.625C25.3452 30.625 26.0312 29.939 26.0312 29.0938V26.0312C26.0312 25.186 25.3452 24.5 24.5 24.5ZM59.7188 24.5C58.8735 24.5 58.1875 25.186 58.1875 26.0312V29.0938C58.1875 29.939 58.8735 30.625 59.7188 30.625C60.564 30.625 61.25 29.939 61.25 29.0938V26.0312C61.25 25.186 60.564 24.5 59.7188 24.5ZM67.375 24.5C66.5297 24.5 65.8438 25.186 65.8438 26.0312V29.0938C65.8438 29.939 66.5297 30.625 67.375 30.625C68.2203 30.625 68.9062 29.939 68.9062 29.0938V26.0312C68.9062 25.186 68.2203 24.5 67.375 24.5ZM75.0312 24.5C74.186 24.5 73.5 25.186 73.5 26.0312V29.0938C73.5 29.939 74.186 30.625 75.0312 30.625C75.8765 30.625 76.5625 29.939 76.5625 29.0938V26.0312C76.5625 25.186 75.8765 24.5 75.0312 24.5ZM82.6875 24.5C81.8422 24.5 81.1562 25.186 81.1562 26.0312V29.0938C81.1562 29.939 81.8422 30.625 82.6875 30.625C83.5328 30.625 84.2188 29.939 84.2188 29.0938V26.0312C84.2188 25.186 83.5328 24.5 82.6875 24.5ZM90.3438 24.5C89.4985 24.5 88.8125 25.186 88.8125 26.0312V29.0938C88.8125 29.939 89.4985 30.625 90.3438 30.625C91.189 30.625 91.875 29.939 91.875 29.0938V26.0312C91.875 25.186 91.189 24.5 90.3438 24.5ZM33.2419 58.011L36.8427 61.9139C36.8342 61.9357 36.8263 61.9576 36.8188 61.9797L30.933 80.8811C30.932 80.8831 30.931 80.8851 30.9301 80.8871C30.4957 82.3085 29.0597 83.0306 27.7031 82.541C26.3967 82.0697 25.7098 80.6329 26.1718 79.2781C26.1728 79.2741 26.1738 79.2701 26.1748 79.2661L33.2419 58.011Z" fill="url(#paint0_linear_13_138)"/>
<defs>
<linearGradient id="paint0_linear_13_138" x1="45.9375" y1="0.343757" x2="45.9375" y2="85.3437" gradientUnits="userSpaceOnUse">
<stop stop-color="#D78D1F"/>
<stop offset="1" stop-color="#B75C1B"/>
</linearGradient>
</defs>
</svg>
