<svg width="76" height="86" viewBox="0 0 76 86" fill="none" xmlns="http://www.w3.org/2000/svg">
<path d="M42.0313 0C23.0024 0 8.87801 12.6447 8.44801 30.0664C8.43726 30.4883 8.37205 30.8848 8.25379 31.2422L0.970775 53.0912C0.712775 53.8652 0.814816 54.701 1.25422 55.3877C1.69363 56.0757 2.41098 56.5233 3.22261 56.6133L7.24073 57.0595C7.92201 57.1361 8.43751 57.7087 8.43751 58.3954V70.5889C8.43751 72.497 9.25191 74.3226 10.6736 75.5964C12.098 76.8703 14.007 77.4819 15.899 77.2682L19.7938 76.8352H19.7964L27.0374 76.0295L26.3209 81.4412C26.1677 82.5928 26.5182 83.7539 27.2841 84.6274C28.0487 85.4995 29.1544 86 30.3154 86H65.9196C67.0604 86 68.1535 85.5147 68.9168 84.6667C69.68 83.8188 70.0494 82.6803 69.9298 81.5462L67.9982 63.2061C67.8154 61.4592 68.1195 59.7152 68.8774 58.1592C73.2916 49.1184 75.625 39.2294 75.625 29.5625C75.625 12.1569 61.8113 0 42.0313 0ZM42.0313 2.6875C63.3821 2.6875 72.9375 16.1855 72.9375 29.5625C72.9375 38.8223 70.6996 48.3042 66.4655 56.9808C65.4859 58.9897 65.0926 61.2402 65.329 63.4869L67.2581 81.827C67.297 82.2127 67.1788 82.5827 66.9195 82.869C66.6615 83.1552 66.3052 83.3125 65.9196 83.3125H30.3154C29.9217 83.3125 29.563 83.1488 29.305 82.8532C29.047 82.5576 28.9338 82.1826 28.9848 81.7929L29.7879 75.7224L34.1157 75.2395C34.8535 75.1575 35.3853 74.4944 35.3046 73.7567C35.2227 73.0203 34.5635 72.4884 33.8218 72.5704L30.1527 72.9772L15.6024 74.5939C14.4562 74.7215 13.322 74.3546 12.4688 73.5913C11.6141 72.8294 11.125 71.7337 11.125 70.5889V58.3954C11.125 56.3381 9.58249 54.6175 7.5373 54.3904L3.51918 53.9416L10.8048 32.0925C11.0077 31.4811 11.118 30.8214 11.1355 30.132C11.5279 14.2287 24.5222 2.6875 42.0313 2.6875ZM42.0313 6.71875C41.2882 6.71875 40.6875 7.32075 40.6875 8.0625V10.75C40.6875 11.4917 41.2882 12.0938 42.0313 12.0938C42.7744 12.0938 43.375 11.4917 43.375 10.75V8.0625C43.375 7.32075 42.7744 6.71875 42.0313 6.71875ZM34.7377 7.71344C34.5646 7.68957 34.3847 7.69885 34.205 7.74756C33.4887 7.93971 33.0627 8.67556 33.2549 9.39313L33.9504 11.9914C34.1103 12.5921 34.653 12.9861 35.2469 12.9861C35.3625 12.9861 35.4817 12.9737 35.5986 12.9415C36.3148 12.7493 36.7408 12.0108 36.5487 11.2933L35.8505 8.69763C35.7074 8.15946 35.2571 7.78506 34.7377 7.71344ZM49.3248 7.71344C48.8065 7.78525 48.3561 8.15946 48.212 8.69763L47.5139 11.2933C47.3217 12.0108 47.7477 12.7507 48.4639 12.9415C48.5808 12.9724 48.7001 12.9861 48.8156 12.9861C49.4082 12.9861 49.9522 12.5921 50.1121 11.9914L50.8076 9.39313C50.9998 8.67556 50.5738 7.93971 49.8576 7.74756C49.6792 7.69918 49.4975 7.6895 49.3248 7.71344ZM27.418 10.5978C27.2451 10.6194 27.0736 10.6753 26.9141 10.7684C26.2704 11.1392 26.0511 11.9632 26.4233 12.6055L27.767 14.9308C28.017 15.3622 28.4674 15.6027 28.9323 15.6027C29.1608 15.6027 29.3906 15.5465 29.6016 15.4243C30.2452 15.0534 30.4646 14.2294 30.0924 13.5871L28.7486 11.2618C28.4694 10.779 27.9367 10.5329 27.418 10.5978ZM56.6419 10.6004C56.1223 10.536 55.5921 10.78 55.3139 11.2618L53.9702 13.5897C53.5979 14.2307 53.8173 15.052 54.4609 15.4243C54.6719 15.5465 54.9018 15.6053 55.1302 15.6053C55.5951 15.6053 56.0469 15.3648 56.2955 14.9335L57.6392 12.6055C58.0101 11.9632 57.7908 11.1419 57.1484 10.771C56.9879 10.6783 56.8151 10.6219 56.6419 10.6004ZM42.0313 16.125C29.4349 16.125 19.1875 26.3724 19.1875 38.9688C19.1875 51.5651 29.4349 61.8125 42.0313 61.8125C54.6276 61.8125 64.875 51.5651 64.875 38.9688C64.875 26.3724 54.6276 16.125 42.0313 16.125ZM42.0313 18.8125C53.1454 18.8125 62.1875 27.8546 62.1875 38.9688C62.1875 50.0829 53.1454 59.125 42.0313 59.125C30.9171 59.125 21.875 50.0829 21.875 38.9688C21.875 27.8546 30.9171 18.8125 42.0313 18.8125ZM38 24.1875C36.5179 24.1875 35.3125 25.3928 35.3125 26.875V32.25H29.9375C28.4554 32.25 27.25 33.4553 27.25 34.9375V43C27.25 44.4822 28.4554 45.6875 29.9375 45.6875H35.3125V51.0625C35.3125 52.5447 36.5179 53.75 38 53.75H46.0625C47.5447 53.75 48.75 52.5447 48.75 51.0625V45.6875H54.125C55.6072 45.6875 56.8125 44.4822 56.8125 43V34.9375C56.8125 33.4553 55.6072 32.25 54.125 32.25H48.75V26.875C48.75 25.3928 47.5447 24.1875 46.0625 24.1875H38ZM38 26.875H46.0625V33.5938C46.0625 34.3355 46.6632 34.9375 47.4063 34.9375H54.125V43H47.4063C46.6632 43 46.0625 43.602 46.0625 44.3438V51.0625H38V44.3438C38 43.602 37.3994 43 36.6563 43H29.9375V34.9375H36.6563C37.3994 34.9375 38 34.3355 38 33.5938V26.875Z" fill="url(#paint0_linear_13_142)"/>
<defs>
<linearGradient id="paint0_linear_13_142" x1="47.2214" y1="0" x2="47.2214" y2="86" gradientUnits="userSpaceOnUse">
<stop stop-color="#D78D1F"/>
<stop offset="1" stop-color="#B75C1B"/>
</linearGradient>
</defs>
</svg>
