<svg width="90" height="92" viewBox="0 0 90 92" fill="none" xmlns="http://www.w3.org/2000/svg">
<path d="M51.125 0C48.3053 0 44.0551 0.392185 39.844 1.17535C35.7554 1.93574 31.8153 3.02037 29.1252 4.72235C26.1038 4.86603 21.9821 6.25142 18.4962 9.28918C17.4042 8.28609 15.9638 7.65625 14.375 7.65625C11.0091 7.65625 8.25 10.4153 8.25 13.7812V25.774C8.22267 25.9394 8.22267 26.1081 8.25 26.2735V44.4391C3.74675 46.7113 0.59375 51.2786 0.59375 56.6562C0.59375 64.2512 6.78005 70.4375 14.375 70.4375C16.579 70.4375 18.656 69.9032 20.506 68.978C26.3497 82.0929 37.4237 91.875 49.5938 91.875C55.8795 91.875 61.8928 89.2 67.0237 84.8707C68.4216 86.3459 70.3828 87.2812 72.5625 87.2812C76.7727 87.2812 80.2188 83.8352 80.2188 79.625C80.2188 78.3172 79.744 77.0588 79.1331 75.6683C78.5952 74.4439 77.9137 73.1735 77.225 71.9628C79.0647 68.4776 80.5147 64.6894 81.5078 60.7206C82.2434 60.4738 83.0192 60.3466 83.6611 59.8354C84.6871 59.0183 85.6333 57.9289 86.4724 56.6562C88.1504 54.111 89.4062 50.8247 89.4062 47.4688C89.4062 45.0017 89.0214 43.2145 88.2309 41.897C87.4404 40.5796 86.0885 39.8125 84.8125 39.8125C84.1455 39.8125 83.6721 40.126 83.1467 40.3598C83.1207 39.6172 83.1464 39.6549 83.0988 38.7927C82.9482 36.0641 82.6816 32.9899 82.1418 30.4785C85.0164 29.6912 86.8372 29.0489 86.8372 29.0489C87.202 28.9127 87.5011 28.6427 87.6739 28.2938C87.8467 27.945 87.8801 27.5434 87.7673 27.1707C83.0046 11.4432 68.3878 0 51.125 0ZM51.125 3.0625C66.4728 3.0625 79.4234 12.9057 84.2562 26.5786C83.6352 26.7972 82.2856 27.2769 80.0393 27.8676C79.9559 27.8827 79.8738 27.9047 79.7941 27.9333C78.5779 28.2475 77.184 28.5809 75.3499 28.9442C75.1525 28.9832 74.9647 29.0608 74.7972 29.1724C74.6298 29.284 74.486 29.4275 74.374 29.5947C74.2621 29.7619 74.1842 29.9495 74.1447 30.1468C74.1053 30.3442 74.1051 30.5473 74.1442 30.7447C74.1833 30.9421 74.2608 31.1299 74.3725 31.2973C74.4842 31.4647 74.6277 31.6084 74.7949 31.7203C74.9622 31.8323 75.1498 31.9101 75.3471 31.9495C75.5445 31.9889 75.7476 31.989 75.945 31.9499C77.1316 31.7149 78.1437 31.4715 79.169 31.2291C79.6064 33.3847 79.8985 36.355 80.0423 38.9601C80.2193 42.1678 80.2188 44.7891 80.2188 44.7891C80.2244 45.1914 80.3883 45.5754 80.6748 45.8579C80.9614 46.1404 81.3476 46.2988 81.75 46.2988C82.1524 46.2988 82.5386 46.1404 82.8252 45.8579C83.1117 45.5754 83.2756 45.1914 83.2812 44.7891C83.2812 44.7891 83.3035 44.2036 83.5325 43.6885C83.7614 43.1734 83.8555 42.875 84.8125 42.875C85.0677 42.875 85.2471 42.8736 85.605 43.4702C85.963 44.0667 86.3438 45.342 86.3438 47.4688C86.3438 50.0326 85.3027 52.8697 83.9183 54.9695C83.2261 56.0194 82.4496 56.885 81.753 57.4398C81.0564 57.9946 80.4569 58.1875 80.2188 58.1875C79.8737 58.1878 79.5389 58.3047 79.2686 58.5191C78.9982 58.7335 78.8082 59.0329 78.7294 59.3688C77.9447 62.6992 76.7936 65.8942 75.3618 68.8823C74.5101 67.5417 73.8216 66.5047 73.8216 66.5047C73.676 66.2937 73.4798 66.1226 73.2509 66.0071C73.0221 65.8917 72.7679 65.8355 72.5117 65.8438C72.2726 65.8519 72.0389 65.916 71.829 66.0307C71.6192 66.1455 71.4392 66.3078 71.3034 66.5047C71.3034 66.5047 69.742 68.7622 68.1751 71.4633C67.3917 72.8139 66.6028 74.2778 65.9919 75.6683C65.381 77.0588 64.9062 78.3172 64.9062 79.625C64.9062 80.5448 65.0957 81.417 65.3967 82.2359C60.6238 86.3757 55.1487 88.8125 49.5938 88.8125C38.9746 88.8125 28.5451 79.8091 23.1139 67.3032C26.1905 64.773 28.1562 60.9383 28.1562 56.6562C28.1562 51.2786 25.0033 46.7113 20.5 44.4391V26.2885C20.5273 26.1231 20.5273 25.9544 20.5 25.789V13.7812C20.5 13.1237 20.3656 12.5013 20.171 11.9061C23.3323 9.02355 27.6765 7.65625 29.6875 7.65625C29.9898 7.65623 30.2853 7.56674 30.5369 7.39905C32.4412 6.1295 36.3808 4.9321 40.4033 4.18402C44.4257 3.43594 48.5976 3.0625 51.125 3.0625ZM57.8631 6.87866C57.5099 6.87503 57.1662 6.99364 56.8904 7.21439C56.6146 7.43514 56.4236 7.74445 56.3498 8.0899L55.6679 11.0776C55.6168 11.2758 55.606 11.4822 55.6361 11.6847C55.6661 11.8871 55.7365 12.0815 55.8429 12.2563C55.9494 12.4311 56.0898 12.5828 56.2559 12.7024C56.4219 12.822 56.6103 12.9071 56.8098 12.9527C57.0093 12.9983 57.216 13.0034 57.4175 12.9678C57.619 12.9321 57.8114 12.8565 57.9832 12.7452C58.155 12.634 58.3027 12.4895 58.4177 12.3202C58.5327 12.1509 58.6126 11.9602 58.6526 11.7595L59.3345 8.77478C59.3895 8.55062 59.3931 8.31693 59.3451 8.09118C59.297 7.86543 59.1986 7.65346 59.0571 7.47111C58.9156 7.28877 58.7347 7.14077 58.5279 7.03818C58.3212 6.93559 58.0939 6.88106 57.8631 6.87866ZM65.7137 9.87537C65.4391 9.87958 65.1706 9.9576 64.9364 10.1013C64.7023 10.2449 64.5111 10.4489 64.3829 10.6918L62.9144 13.3775C62.8095 13.5544 62.7412 13.7505 62.7137 13.9543C62.6862 14.1581 62.7001 14.3654 62.7544 14.5637C62.8088 14.7621 62.9025 14.9474 63.03 15.1087C63.1576 15.2701 63.3163 15.4041 63.4967 15.5027C63.6771 15.6014 63.8756 15.6627 64.0802 15.683C64.2849 15.7033 64.4915 15.6821 64.6878 15.6209C64.8841 15.5596 65.0661 15.4594 65.2228 15.3262C65.3795 15.1931 65.5079 15.0297 65.6001 14.8459L67.0685 12.1603C67.2012 11.9257 67.2695 11.6603 67.2668 11.3908C67.264 11.1213 67.1901 10.8574 67.0527 10.6256C66.9152 10.3938 66.7191 10.2023 66.484 10.0706C66.2489 9.9389 65.9832 9.87155 65.7137 9.87537ZM14.375 10.7188C16.0928 10.7188 17.4375 12.0634 17.4375 13.7812V24.5H11.3125V13.7812C11.3125 12.0634 12.6572 10.7188 14.375 10.7188ZM72.4578 14.8848C72.0604 14.9014 71.685 15.0719 71.4111 15.3604L69.2727 17.5555C69.1323 17.6997 69.0216 17.8701 68.947 18.057C68.8724 18.2439 68.8354 18.4436 68.838 18.6449C68.8406 18.8461 68.8829 19.0448 68.9623 19.2297C69.0417 19.4146 69.1568 19.5821 69.301 19.7225C69.4451 19.8629 69.6155 19.9735 69.8024 20.0481C69.9894 20.1227 70.1891 20.1597 70.3904 20.157C70.5916 20.1544 70.7903 20.1121 70.9752 20.0326C71.1601 19.9532 71.3275 19.8381 71.4679 19.6939L73.6033 17.4987C73.8215 17.2808 73.9689 17.0021 74.0262 16.6991C74.0834 16.396 74.0478 16.0827 73.924 15.8003C73.8002 15.5178 73.594 15.2793 73.3324 15.1159C73.0708 14.9526 72.766 14.872 72.4578 14.8848ZM77.7544 21.5422C77.7035 21.5406 77.6526 21.5416 77.6019 21.5452C77.361 21.5612 77.1274 21.634 76.92 21.7575L74.2702 23.2888C74.0898 23.3858 73.9306 23.5181 73.8022 23.6777C73.6738 23.8373 73.5788 24.0211 73.5227 24.2182C73.4666 24.4152 73.4506 24.6215 73.4757 24.8248C73.5007 25.0282 73.5663 25.2244 73.6686 25.4019C73.7709 25.5795 73.9077 25.7347 74.0711 25.8583C74.2344 25.982 74.4209 26.0717 74.6195 26.122C74.8181 26.1723 75.0247 26.1823 75.2272 26.1513C75.4298 26.1203 75.624 26.0489 75.7985 25.9415L78.4512 24.4103C78.7437 24.2472 78.9746 23.9927 79.1087 23.6858C79.2428 23.379 79.2725 23.0366 79.1935 22.7112C79.1144 22.3858 78.9309 22.0953 78.671 21.8842C78.411 21.673 78.0891 21.5529 77.7544 21.5422ZM32.1578 21.596C31.8275 21.6138 31.4846 21.685 31.1589 21.8293C30.5075 22.1178 29.9905 22.6329 29.5798 23.2648C28.5714 24.8174 27.2227 26.0809 25.7667 27.093C25.5969 27.2057 25.4514 27.3512 25.3386 27.5209C25.2258 27.6906 25.148 27.8811 25.1098 28.0812C25.0715 28.2814 25.0736 28.4872 25.1159 28.6865C25.1582 28.8858 25.2399 29.0747 25.3561 29.2421C25.4723 29.4095 25.6208 29.552 25.7928 29.6612C25.9648 29.7705 26.1568 29.8443 26.3577 29.8784C26.5586 29.9125 26.7643 29.9062 26.9627 29.8598C27.1612 29.8134 27.3483 29.7278 27.5132 29.6082C29.2208 28.4213 30.8757 26.8938 32.1489 24.9337C32.3132 24.6807 32.3672 24.6705 32.3672 24.6705C32.5121 24.715 33.0236 25.0324 33.6502 25.4361C37.428 27.874 46.6237 33.1388 57.1752 33.6486C57.5809 33.6681 57.9778 33.5255 58.2784 33.2524C58.579 32.9792 58.7588 32.5979 58.7783 32.1921C58.7977 31.7864 58.6552 31.3896 58.382 31.089C58.1089 30.7883 57.7275 30.6085 57.3218 30.5891C47.7159 30.125 38.8577 25.1516 35.313 22.8641L35.3101 22.8611C34.8537 22.567 34.1858 21.9589 33.082 21.6827C32.806 21.6137 32.4882 21.5782 32.1578 21.596ZM11.3125 27.5625H17.4375V45.2945C17.4377 45.5988 17.5285 45.8962 17.6984 46.1487C17.8683 46.4012 18.1097 46.5974 18.3915 46.7121C22.3158 48.3059 25.0938 52.1402 25.0938 56.6562C25.0938 60.2833 23.3076 63.4697 20.5688 65.4071C20.4264 65.4743 20.2953 65.5631 20.18 65.6703C18.5085 66.7456 16.5199 67.375 14.375 67.375C8.4337 67.375 3.65625 62.5975 3.65625 56.6562C3.65625 52.1402 6.4342 48.3059 10.3585 46.7121C10.6403 46.5974 10.8817 46.4012 11.0516 46.1487C11.2215 45.8962 11.3123 45.5988 11.3125 45.2945V27.5625ZM69.512 29.9252C69.425 29.9228 69.3379 29.9278 69.2518 29.9401C67.3831 30.1809 65.4057 30.3717 63.3481 30.4904C62.9424 30.5138 62.5626 30.6974 62.2922 31.0009C62.0219 31.3043 61.8832 31.7027 61.9066 32.1084C61.93 32.5141 62.1136 32.8939 62.417 33.1643C62.7204 33.4346 63.1188 33.5733 63.5245 33.5499C65.6595 33.4267 67.7086 33.225 69.6436 32.9757C70.0261 32.929 70.3769 32.7397 70.6261 32.4457C70.8752 32.1517 71.0044 31.7746 70.9877 31.3896C70.9711 31.0046 70.81 30.64 70.5364 30.3686C70.2629 30.0971 69.8971 29.9388 69.512 29.9252ZM40.4481 36.747C40.362 36.7458 40.276 36.7518 40.1909 36.765L29.4722 38.2962C29.273 38.3244 29.0814 38.3916 28.9082 38.4939C28.735 38.5962 28.5836 38.7317 28.4628 38.8925C28.3419 39.0533 28.254 39.2363 28.2039 39.4311C28.1538 39.626 28.1425 39.8287 28.1708 40.0279C28.1991 40.227 28.2663 40.4187 28.3687 40.5918C28.4711 40.765 28.6065 40.9163 28.7674 41.0371C28.9282 41.1579 29.1112 41.2459 29.3061 41.2959C29.5009 41.346 29.7037 41.3571 29.9028 41.3288L40.6216 39.7975C41.0063 39.7488 41.3582 39.5559 41.6063 39.2578C41.8543 38.9597 41.98 38.5785 41.958 38.1914C41.936 37.8042 41.7679 37.4398 41.4876 37.1717C41.2074 36.9036 40.8359 36.7518 40.4481 36.747ZM58.6915 36.747C58.3067 36.7618 57.9416 36.921 57.6689 37.1929C57.3963 37.4648 57.236 37.8295 57.2202 38.2143C57.2044 38.599 57.3341 38.9757 57.5834 39.2691C57.8328 39.5625 58.1836 39.7512 58.5659 39.7975L69.2847 41.3288C69.4838 41.3571 69.6866 41.346 69.8814 41.2959C70.0762 41.2459 70.2593 41.1579 70.4202 41.0371C70.581 40.9163 70.7164 40.765 70.8188 40.5918C70.9212 40.4187 70.9884 40.227 71.0167 40.0279C71.045 39.8287 71.0337 39.626 70.9836 39.4311C70.9335 39.2363 70.8456 39.0533 70.7247 38.8925C70.6039 38.7317 70.4525 38.5962 70.2793 38.4939C70.1061 38.3916 69.9145 38.3244 69.7153 38.2962L58.9966 36.765C58.8957 36.7488 58.7936 36.7428 58.6915 36.747ZM34.2812 42.875C32.5892 42.875 31.2188 44.2455 31.2188 45.9375C31.2188 47.6295 32.5892 49 34.2812 49C35.9733 49 37.3438 47.6295 37.3438 45.9375C37.3438 44.2455 35.9733 42.875 34.2812 42.875ZM64.9062 42.875C63.2142 42.875 61.8438 44.2455 61.8438 45.9375C61.8438 47.6295 63.2142 49 64.9062 49C66.5983 49 67.9688 47.6295 67.9688 45.9375C67.9688 44.2455 66.5983 42.875 64.9062 42.875ZM40.4062 68.9062C40.2033 68.9034 40.0019 68.9409 39.8136 69.0165C39.6253 69.0922 39.4539 69.2045 39.3094 69.347C39.1649 69.4895 39.0502 69.6592 38.9718 69.8465C38.8935 70.0337 38.8532 70.2346 38.8532 70.4375C38.8532 70.6404 38.8935 70.8413 38.9718 71.0285C39.0502 71.2158 39.1649 71.3855 39.3094 71.528C39.4539 71.6705 39.6253 71.7828 39.8136 71.8585C40.0019 71.9341 40.2033 71.9716 40.4062 71.9688H58.7812C58.9842 71.9716 59.1856 71.9341 59.3739 71.8585C59.5622 71.7828 59.7336 71.6705 59.8781 71.528C60.0226 71.3855 60.1373 71.2158 60.2157 71.0285C60.294 70.8413 60.3343 70.6404 60.3343 70.4375C60.3343 70.2346 60.294 70.0337 60.2157 69.8465C60.1373 69.6592 60.0226 69.4895 59.8781 69.347C59.7336 69.2045 59.5622 69.0922 59.3739 69.0165C59.1856 68.9409 58.9842 68.9034 58.7812 68.9062H40.4062ZM72.5625 70.2431C73.0579 70.9969 73.4033 71.5038 74.022 72.543C74.0913 72.7428 74.2013 72.9261 74.345 73.0813C75.0772 74.3479 75.8013 75.702 76.3278 76.9005C76.8653 78.1239 77.1562 79.2415 77.1562 79.625C77.1562 82.1799 75.1174 84.2188 72.5625 84.2188C70.9277 84.2188 69.5118 83.378 68.6985 82.1073C68.6533 81.9909 68.594 81.8804 68.522 81.7783C68.1807 81.1346 67.9688 80.4106 67.9688 79.625C67.9688 79.2415 68.2597 78.1239 68.7972 76.9005C69.3347 75.677 70.0771 74.2897 70.8249 73.0005C71.6922 71.5055 71.985 71.1219 72.5625 70.2431Z" fill="url(#paint0_linear_13_140)"/>
<defs>
<linearGradient id="paint0_linear_13_140" x1="45" y1="-0.0625025" x2="45" y2="91.9375" gradientUnits="userSpaceOnUse">
<stop stop-color="#D78D1F"/>
<stop offset="1" stop-color="#B75C1B"/>
</linearGradient>
</defs>
</svg>
