<svg width="454" height="484" viewBox="0 0 454 484" fill="none" xmlns="http://www.w3.org/2000/svg">
<path d="M91.4365 291.278C122.715 379.293 256.065 436.017 294.949 392.957C333.834 349.896 308.392 326.791 297.888 244.848C287.383 162.906 345.144 124.893 298.848 73.2072C252.553 21.5212 182.095 52.336 147.662 81.649C113.229 110.962 60.1576 203.264 91.4365 291.278Z" fill="url(#paint0_linear_127_2)" fill-opacity="0.6"/>
<path d="M62.2271 278.207C57.2183 371.299 158.443 474.46 210.898 449.58C263.353 424.7 248.767 393.691 270.61 314.121C292.453 234.551 360.384 221.524 337.554 156.207C314.724 90.8899 237.846 92.4373 194.79 106.338C151.733 120.238 67.2358 185.116 62.2271 278.207Z" stroke="white" stroke-opacity="0.6"/>
<defs>
<linearGradient id="paint0_linear_127_2" x1="196.105" y1="62.3209" x2="243.739" y2="399.341" gradientUnits="userSpaceOnUse">
<stop stop-color="#1E7446"/>
<stop offset="1" stop-color="#00D4BB"/>
</linearGradient>
</defs>
</svg>
